<?xml version="1.0" encoding="utf-8"?>
<!-- Generator: Adobe Illustrator 25.0.1, SVG Export Plug-In . SVG Version: 6.00 Build 0)  -->
<svg version="1.1" id="Ebene_1" xmlns="http://www.w3.org/2000/svg" xmlns:xlink="http://www.w3.org/1999/xlink" x="0px" y="0px"
	 viewBox="0 0 2713.3 720.9" style="enable-background:new 0 0 2713.3 720.9;" xml:space="preserve">
<style type="text/css">
	.st0{fill:#91BD50;}
	.st1{fill:#EB600A;}
	.st2{fill:#404040;}
</style>
<path id="Grün" class="st0" d="M1683.9,416.3l-27.6,98.9h-28.8l28.4-102h-2.4c-21.2,0-37.6,6.3-37.6,31.1c0,7.9,2.6,9.1,2.8,10.5
	c-13.8,0-21.4-3.8-21.4-14.9c0-20.5,18.8-40,68.3-40c24.2,0,31.6,3.5,51.3,3.5c9.2,0,17.8-1.5,23.2-3.2c-0.4,13.4-9,19.6-25,19.6
	C1705.2,419.7,1694.7,418.2,1683.9,416.3z M2438,437.8c-4,0-8.2,0.5-16.4,4.3l9.6-34.7l-29.6,3.1l-21.4,77.2h-0.6
	c-3,7.7-8.4,13.6-16.2,13.6c-5.6,0-8.2-1.4-8.2-5.7c0-1.4,0.2-2.9,0.8-4.9l14.4-52.4h-28.8l-13.6,49.4c-3,7.7-8.2,13.6-16,13.6
	c-4.4,0-6-2.8-6-6.3c0-1.4,0.2-2.8,0.6-4.3l14.4-52.4H2292l-13.6,49.4h-0.6c-3,7.7-10.2,13.6-18,13.6c-5.6,0-8.2-1.4-8.2-5.7
	c0-1.4,0.2-2.9,0.8-4.9l23-83.2l-29.6,3.1l-21.4,77.2h-0.4c-10,8.8-19.6,15.6-35.4,15.6c-9.6,0-14.4-2.5-14.4-12.9
	c0-17.1,13-45.3,25.6-45.3c3.8,0,5.6,2.5,5.6,6.3c0,2.6-0.8,5.7-2.4,9.1c2.4,1.2,4.8,1.8,7,1.8c5.8,0,10.6-3.7,10.6-11.2
	c0-7.1-4.4-14.2-22.2-14.2c-39.8,0-53.3,35.4-53.8,53.7v0c-5.5,11.3-12.6,16-23.9,19.2l19.8-71.5h-28.8l-2.2,8v-0.9
	c0-4.5-4.8-7.8-16.2-7.8c-34.7,0-51.3,32.9-51.5,53.7c-3.6,6.1-7.4,10.1-14.9,10.1c-6,0-8-2.6-8-6.5c0-8.6,9.6-27.3,9.6-39.7
	c0-12.3-9.4-17.4-22.2-17.4c-6.2,0-15,1.2-23.4,8.6l2.2-8H1956l-13.6,49.4h-1.1c-3,7.7-10.2,13.6-18,13.6c-5.6,0-8.2-1.4-8.2-5.7
	c0-1.4,0.2-2.9,0.8-4.9l14.4-52.4h-28.8l-13.6,49.4h-0.1c-4.4,8-8,13.6-16.8,13.6c-6,0-8-2.6-8-6.5c0-8.6,9.6-27.3,9.6-39.7
	c0-12.3-9.4-17.4-22.2-17.4c-6.2,0-15,1.2-23.4,8.6l2.2-8h-28.8l-13.6,49.4h-1.2c-3,7.7-8.4,13.6-16.2,13.6c-5.6,0-8.2-1.4-8.2-5.7
	c0-1.4,0.2-2.9,0.8-4.9l14.4-52.4h-28.8l-13.6,49.4c-3,7.7-8.2,13.6-16,13.6c-4.4,0-6-2.8-6-6.3c0-1.4,0.2-2.8,0.6-4.3l14.4-52.4
	h-28.8l-13.6,49.4c-1,3.7-1.6,7.1-1.6,10c0,12.9,9.4,18.5,21.4,18.5c8.4,0,19.6-2,29.6-14.6c1.2,9.5,8.4,14.6,19.8,14.6
	c7.5,0,18.4-1.6,28.2-10.9l-2.8,10h28.8l13.6-49.4c3-7.7,8.4-14.2,15.6-14.2c4.8,0,7.2,2.8,7.2,7.9c0,9.9-9,28.8-9,39.3
	c0,8.8,6.2,17.4,23.6,17.4c7.9,0,18.5-1.8,27.9-13.1c2.3,9.1,10.6,13.1,20.8,13.1c7.6,0,19.6-1.7,30-11.3l-2.9,10.4h28.8l13.6-49.4
	c3-7.7,8.4-14.2,15.6-14.2c4.8,0,7.2,2.8,7.2,7.9c0,9.9-9,28.8-9,39.3c0,8.8,6.2,17.4,23.6,17.4c8.1,0,19-1.9,28.7-14.1
	c4.1,10.2,14.2,14.1,24.7,14.1c10.4,0,18.2-3.7,24-8.5l-2.4,8.2c-15,3.6-32.6,10-32.6,23c0,10,10.2,14.9,22.4,14.9
	c13.2,0,30-4.2,36-26.2l3-11.1c8.9-1.9,19.4-5.5,27.4-14.9c4,10.3,14.8,14.6,29.6,14.6c21,0,36.1-8.9,47.1-19.7c0,0.4,0,0.8,0,1.2
	c0,12.9,9.4,18.5,21.4,18.5c8.3,0,22-2,33-14.4c1.8,10,10.4,14.4,21.1,14.4c8.4,0,19.6-2,29.6-14.6c1.2,9.5,8.4,14.6,19.8,14.6
	c8.4,0,21.1-2,31.7-14.6c2.4,9.2,11.7,14.6,27.4,14.6c42.4,0,54.9-34,54.9-52.1C2461.6,444.5,2452,437.8,2438,437.8z M2086.6,528
	c-2.6,9.1-7.4,13.7-11.6,13.7c-4.4,0-6.8-2.9-6.8-5.1c0-6.2,9.4-10.2,19.6-13.1L2086.6,528z M2097.2,489.2c-2.8,7.9-10.6,12-16,12
	c-3.6,0-10-0.2-10-12c0-14.5,11-42.2,28-42.2c6.4,0,8,4,8.2,5.7L2097.2,489.2z M2417.9,501.2c-7.2,0-10.6-2.6-10.6-7.1
	c0-1.1,0.2-2.3,0.6-3.5l11-39.1c2.2-2,9-2.8,11.8-2.8c7.2,0,10.6,7.2,10.6,14.8C2441.4,479.6,2431,501.2,2417.9,501.2z
	 M1921.3,405.4c-8.8,0-15.8,5.5-15.8,12.3c0,6.8,7,12.2,15.8,12.2c8.8,0,16-5.4,16-12.2C1937.3,411,1930.1,405.4,1921.3,405.4z
	 M473.4,211.6c-8.6,0-15.5,5.5-15.5,11.9c0,6.6,6.8,11.9,15.5,11.9c8.4,0,15.5-5.3,15.5-11.9C488.9,217.1,481.8,211.6,473.4,211.6z
	 M427.7,211.6c-8.6,0-15.5,5.5-15.5,11.9c0,6.6,6.8,11.9,15.5,11.9c8.4,0,15.5-5.3,15.5-11.9C443.2,217.1,436.1,211.6,427.7,211.6z
	 M1099.4,249.7c-12.2,0-21.8,6.2-30.7,12.1l3.3-12.1h-36.6l-17.3,62.7h-1.2c-12.7,11.1-24.9,19.7-44.9,19.7
	c-12.2,0-18.3-3.1-18.3-16.4c0-2.3,0.2-5.1,0.5-7.8c30.5-1.4,58.4-18.7,58.4-41.2c0-9.8-5.3-18.7-27.9-18.7c-52,0-68.5,47-68.5,69.5
	c0,0.2,0,0.4,0,0.6c0,0,0,0,0,0c-6.9,14.3-16,20.3-30.3,24.2l25.1-90.6h-36.6l-2.8,10.2v-1.2c0-5.7-6.1-10-20.6-10
	c-42.8,0-63.9,39.4-65.2,65.9c-4.6,7.8-9.4,12.9-18.9,12.9c-7.6,0-10.2-3.3-10.2-8.2c0-10.9,12.2-34.6,12.2-50.4
	c0-15.6-11.9-22.1-28.2-22.1c-7.9,0-19,1.6-29.7,10.9l2.8-10.2h-36.6l-17.3,62.7h-1.4c-3.8,9.8-13,17.2-22.8,17.2
	c-7.1,0-10.4-1.8-10.4-7.2c0-1.8,0.2-3.7,1-6.2l18.3-66.4h-36.5l-2.8,10.2c-1.9-5.6-7.6-10.2-16.8-10.2c-12.2,0-21.8,6.2-30.7,12.1
	l3.3-12.1h-36.5l-17.3,62.7h-1.6c-3.8,9.8-10.7,17.2-20.5,17.2c-7.1,0-10.4-1.8-10.4-7.2c0-1.8,0.2-3.7,1-6.2l18.3-66.4h-36.5
	l-17.3,62.7c-3.8,9.8-10.4,17.2-20.3,17.2c-5.6,0-7.6-3.5-7.6-8c0-1.8,0.2-3.5,0.8-5.5l18.3-66.4H395l-17.3,62.7h-8.1
	c-5.6,10.2-10.2,17.2-21.3,17.2c-7.6,0-10.2-3.3-10.2-8.2c0-10.9,12.2-34.6,12.2-50.4c0-15.6-11.9-22.1-28.2-22.1
	c-8.1,0-19.3,1.8-30.2,11.3c11.7-44.5,15.2-50.2,21.3-58.8c-7.1,3.5-18.3,4.7-30.7,4.7c-25.9,0-56.9-5.1-68.5-5.1
	c-62.7,0-89.3,24.8-89.3,50.8c0,14,9.6,18.9,27.2,18.9c-0.3-1.8-3.6-3.3-3.6-13.3c0-30.7,22.6-39,51-39.8L163,347.3h36.6l35.8-127.9
	c11.7,1.2,23.1,2.7,33.5,3.3l-34.8,124.5h36.6c6.1-26,11.2-46.8,15.5-63.8c3.8-9.2,10.4-16.8,19.3-16.8c6.1,0,9.1,3.5,9.1,10
	c0,12.5-11.4,36.5-11.4,49.8c0,11.1,7.9,22.1,30,22.1c12.1,0,29.2-3.3,42.9-27.5c-0.2,1.4-0.3,2.8-0.3,4.1
	c0,16.4,11.9,23.4,27.2,23.4c10.7,0,24.9-2.5,37.6-18.5c1.5,12.1,10.7,18.5,25.1,18.5c9.5,0,23.3-2.1,35.8-13.9l-3.5,12.7h36.6
	l20.3-74.2c6.3-4.5,10.9-7.4,18.5-7.4c7.6,0,0.5,12.9,14.7,12.9c6.1,0,10.6-1.8,13.6-4.4L591,312.3c-1.3,4.7-2,9-2,12.7
	c0,16.4,11.9,23.4,27.2,23.4c9.6,0,24.8-2.1,38-14.3l-3.6,13.1h36.5l17.3-62.7c3.8-9.8,10.7-18,19.8-18c6.1,0,9.1,3.5,9.1,10
	c0,12.5-11.4,36.5-11.4,49.8c0,11.1,7.9,22.1,29.9,22.1c10.1,0,23.7-2.3,35.9-17.2c4.8,14,18.1,19.2,31.9,19.2
	c13.2,0,23.1-4.7,30.4-10.7l-3,10.4c-17.5,4.1-37.9,11.4-41,25.3c-0.3,1.2-0.4,2.4-0.4,3.7c0,1.2,0.1,2.3,0.3,3.3
	c2.1,10.5,14,15.6,28.1,15.6c12.4,0,27.2-2.9,37.2-15.6c1.6-2.1,3.2-4.4,4.5-7.1c1.6-3.1,2.9-6.6,4-10.5l3.8-14.1
	c11.6-2.4,25-7.1,35.3-19.6c5.5,12,18.9,17.2,36.9,17.2c26.3,0,45.2-11.1,59.2-24.4l-6.4,23.3h36.6l20.3-74.2
	c6.3-4.5,10.9-7.4,18.5-7.4c7.6,0,0.5,12.9,14.7,12.9c12.4,0,18.3-7.4,18.3-14.2C1116.9,256.9,1110.8,249.7,1099.4,249.7z
	 M986.7,258.3c4.8,0,6.3,3.1,6.3,8c0,16.2-17.3,31.2-36.8,32.2C961.4,279.1,973.8,258.3,986.7,258.3z M843,365.5
	c-1.1,4-2.6,7.3-4.3,9.9c-2.5,3.9-5.3,6.2-8.1,7.1c-0.8,0.2-1.6,0.4-2.3,0.4c-1,0-2-0.1-2.9-0.4c-3.8-1-5.8-3.8-5.8-6.1
	c0-0.3,0-0.7,0.1-1c1-7.2,12.4-12,24.8-15.6L843,365.5z M856.4,316.3c-3.5,10-13.5,15.2-20.3,15.2c-4.6,0-12.7-0.2-12.7-15.2
	c0-18.3,13.9-53.5,35.5-53.5c8.1,0,10.2,5.1,10.4,7.2L856.4,316.3z M633.4,208.1c-11.2,0-20,7-20,15.6c0,8.6,8.9,15.4,20,15.4
	c11.2,0,20.3-6.8,20.3-15.4C653.7,215.1,644.5,208.1,633.4,208.1z M1280.1,221.9l-35,125.3h-36.5l36-129.2h-3
	c-26.9,0-47.7,8-47.7,39.4c0,10,3.3,11.5,3.6,13.3c-17.5,0-27.2-4.9-27.2-18.9c0-26,23.9-50.8,86.5-50.8c30.7,0,40.1,4.5,65,4.5
	c11.7,0,22.6-2,29.4-4.1c-0.5,17-11.4,24.8-31.7,24.8C1307,226.2,1293.8,224.3,1280.1,221.9z M1831,249.7l-2.5,9.4
	c0-6-6.1-10.3-20.6-10.3c-41.6,0-62.7,37.3-65,63.6h-7c-5.6,10.2-10.2,17.2-21.3,17.2c-7.6,0-10.2-3.3-10.2-8.2
	c0-10.9,12.2-34.6,12.2-50.4c0-15.6-11.9-22.1-28.2-22.1c-7.9,0-19,1.6-29.7,10.9l2.8-10.2H1625l-17.3,62.7h-1.4
	c-3.8,9.8-12.9,17.2-22.8,17.2c-7.1,0-10.4-1.8-10.4-7.2c0-1.8,0.3-3.7,1-6.2l18.3-66.4h-36.5l-17.3,62.7h-0.1
	c-5.6,10.2-10.2,17.2-21.3,17.2c-7.6,0-10.2-3.3-10.2-8.2c0-10.9,12.2-34.6,12.2-50.4c0-15.6-11.9-22.1-28.2-22.1
	c-7.9,0-19,1.6-29.7,10.9l2.8-10.2h-36.6l-17.3,62.7h-1.6c-3.8,9.8-10.7,17.2-20.6,17.2c-7.1,0-10.4-1.8-10.4-7.2
	c0-1.8,0.3-3.7,1-6.2l18.3-66.4h-36.6l-17.2,62.7c-3.8,9.8-10.4,17.2-20.3,17.2c-5.6,0-7.6-3.5-7.6-8c0-1.8,0.2-3.5,0.8-5.5
	l18.3-66.4h-36.5l-17.3,62.7c-1.3,4.7-2,9-2,12.7c0,16.4,11.9,23.4,27.2,23.4c10.7,0,24.9-2.5,37.6-18.5
	c1.5,12.1,10.7,18.5,25.1,18.5c9.5,0,23.3-2.1,35.8-13.9l-3.5,12.7h36.5l17.3-62.7c3.8-9.8,10.7-18,19.8-18c6.1,0,9.1,3.5,9.1,10
	c0,12.5-11.4,36.5-11.4,49.8c0,11.1,7.9,22.1,29.9,22.1c10,0,23.4-2.3,35.4-16.6c2.9,11.6,13.4,16.6,26.4,16.6
	c9.6,0,24.8-2.1,38-14.3l-3.6,13.1h36.5l17.3-62.7c3.8-9.8,10.7-18,19.8-18c6.1,0,9.1,3.5,9.1,10c0,12.5-11.4,36.5-11.4,49.8
	c0,11.1,7.9,22.1,30,22.1c12.3,0,29.7-3.4,43.4-28.4c1.4,20.9,17.2,28.4,33.7,28.4c13.2,0,23.1-4.9,30.5-10.9l-2.3,8.2
	c-24.1,5.5-43.9,11.1-43.9,29.3c0,0.2,0,0.3,0,0.5c0.1,2.5,0.7,4.9,1.9,7.1c4.4,8.4,15.9,13.5,28.1,13.5c11.7,0,25.8-2.6,35.9-13.5
	c1.9-2,3.6-4.4,5.2-7.1c2.1-3.6,3.8-7.7,5.1-12.6l31-113.2H1831z M1799.8,363.5c-1.7,5.8-4.1,9.6-6.8,12c-2.6,2.3-5.5,3.2-8.2,3.2
	c-3.5,0-6.6-1.5-8.4-3.2c-1.1-1-1.7-2.2-1.7-3.2c0-10.5,12.2-16.2,28.2-20.3L1799.8,363.5z M1813.3,314.9
	c-2.8,10-13.4,14.6-20.3,14.6c-4.6,0-12.7-0.2-12.7-15.2c0-18.3,14-53.5,35.5-53.5c7.6,0,9.9,4.3,10.4,6.8L1813.3,314.9z
	 M1581,208.1c-11.2,0-20.1,7-20.1,15.6c0,8.6,8.9,15.4,20.1,15.4c11.2,0,20.3-6.8,20.3-15.4C1601.3,215.1,1592.2,208.1,1581,208.1z
	 M2043.4,259.4l-4.1,14.4h-37.1l-20.6,73.4h-36.5l36.5-130.4c-19.5,0.6-33,9.2-33,40.4c0,10,3.3,11.5,3.6,13.3
	c-17.5,0-27.2-4.9-27.2-18.9c0-26,23.9-50.8,86.5-50.8c10.2,0,26.1,2.3,42.1,2.3c7.9,0,15.7-0.6,22.8-2.3
	c-3.6,8.2-4.3,20.1-24.1,23.4c-11.7,0-23.9-1.8-35.5-3.7l-10.7,38.8H2043.4z M2087.5,249.7l-3.3,12.1c8.9-5.9,18.5-12.1,30.7-12.1
	c11.4,0,17.5,7.2,17.5,14.6c0,6.8-5.8,14.3-18.3,14.3c-14.2,0-7.1-12.9-14.7-12.9c-7.6,0-12.2,2.9-18.5,7.4l-20.3,74.2h-36.5
	l26.9-97.6H2087.5z M2710,266.6c0-9.8-5.3-18.7-27.9-18.7c-48.4,0-66,40.7-68.3,64.4h-7c-3.8,9.8-10.7,17.2-20.6,17.2
	c-7.1,0-10.4-1.8-10.4-7.2c0-1.8,0.3-3.7,1-6.2l29.2-105.4l-37.6,3.9l-12.4,44.9v-0.8c0-5.7-6.1-10-20.6-10c-44,0-65.1,41.7-65.2,68
	c0,0,0,0,0,0c-4.6,7.7-9.3,12.8-18.8,12.8c-7.6,0-10.2-3.3-10.2-8.2c0-10.9,12.2-34.6,12.2-50.4c0-15.6-11.9-22.1-28.2-22.1
	c-7.9,0-19,1.6-29.7,10.9l2.8-10.2h-36.5l-17.3,62.7h-1.6c-3.8,9.8-10.7,17.2-20.6,17.2c-7.1,0-10.4-1.8-10.4-7.2
	c0-1.8,0.3-3.7,1-6.2l18.3-66.4h-36.5l-17.3,62.7c-3.8,9.8-10.4,17.2-20.3,17.2c-5.6,0-7.6-3.5-7.6-8c0-1.8,0.2-3.5,0.8-5.5
	l18.3-66.4h-36.5l-17.3,62.7h-0.5c-12.7,11.1-24.9,19.7-44.9,19.7c-12.2,0-18.3-3.1-18.3-16.4c0-2.3,0.3-5.1,0.5-7.8
	c30.5-1.4,58.4-18.7,58.4-41.2c0-9.8-5.3-18.7-27.9-18.7c-52,0-68.5,47-68.5,69.5c0,22.1,15.7,31,39.6,31c26.7,0,45.8-11.3,59.7-25
	c0,0.5-0.1,1-0.1,1.5c0,16.4,11.9,23.4,27.2,23.4c10.7,0,24.9-2.5,37.6-18.5c1.5,12.1,10.7,18.5,25.1,18.5c9.5,0,23.3-2.1,35.8-13.9
	l-3.5,12.7h36.6l17.3-62.7c3.8-9.8,10.7-18,19.8-18c6.1,0,9.1,3.5,9.1,10c0,12.5-11.4,36.5-11.4,49.8c0,11.1,7.9,22.1,29.9,22.1
	c10.3,0,24.1-2.4,36.4-17.8c5.2,12.9,18,17.8,31.4,17.8c18,0,30-9,37.6-18c2,10.9,11.2,16.8,24.9,16.8c12.6,0,32.8-2.6,47.2-27.5
	c1.1,20.3,16.5,28.7,39.3,28.7c20.3,0,38.6-6.6,43.9-28.9c-8.1,5.5-20.3,10.3-29.9,10.3c-8.9,0-15.7-3.9-15.7-16.2
	c0-1.8,0.3-3.9,0.5-5.9C2682.1,306.5,2710,289.3,2710,266.6z M2684.1,258.3c4.8,0,6.3,3.1,6.3,8c0,16.4-17.3,31.4-37,32.2
	C2658.7,279.9,2671.4,258.3,2684.1,258.3z M2184.1,258.3c4.8,0,6.3,3.1,6.3,8c0,16.2-17.3,31.2-36.8,32.2
	C2158.7,279.1,2171.2,258.3,2184.1,258.3z M2541.3,312.3v1c-3.3,10.7-13.7,16.2-20.8,16.2c-4.6,0-12.7-0.2-12.7-15.2
	c0-18.3,13.9-53.5,35.5-53.5c7.6,0,9.9,4.5,10.4,6.8L2541.3,312.3z"/>
<path id="Orange" class="st1" d="M2697.9,112.1c5.8-1.6,7.4,0.5,4.8,3.9c-8.9,11.7-10.8,24-3.3,37.6c1.5,2.8,0,4.1-2.5,5.3
	c-119.6,56.3-268.5-14.6-397.3,40.4c68.2-55,228.9-39.3,319.1-48.4c33.1-3.3,55.9-13,58.2-21.5c1.1-3.9-15.3-3.8-19.5-3.6
	c-55.1,3-179.3-31.7-224.9-39.4c-71.4-12-141.2-10.8-211,10.2c-34.2,10.3-66.8,24.5-98.8,39.8c-19.2,9.2-27.4,12-48.8,12.8
	c-84.8,3.2-245.6,9.2-313,55.9c54.4-57.9,238.6-69.4,320.1-75.1c18.2-1.3,25.1-7.8,41.1-14.5c36.3-15.3,73.2-29,111.5-38.4
	c25.9-6.4,52-11.4,78.8-12.5c39.1-1.7,81.8,2.1,120.2,8.6c67.6,11.4,163.6,48.1,226.9,45.5C2672.5,118.2,2685.2,115.7,2697.9,112.1
	L2697.9,112.1z M505.6,515.2l21-113.3h-28.8l-44,81.2l4.6-81.2c-4.8-1.4-10-2.2-15.2-2.2c-30.4,0-63.7,21.3-63.7,41
	c0,10.2,8.4,14,21.4,14c-0.2-1.4-2.8-2.5-2.8-10.6c0-17.6,12-29.6,31.8-34.7l-50.9,105.8h16l33.4-69.5l-4,69.5H452l37.6-69.1
	l-12.8,69.1H505.6z M883,487.6c-11.4,14.2-28.4,28.5-55.1,28.5c-13.9,0-24.4-3.9-28.8-13c-9.8,11.5-20.6,13-27.4,13
	c-16.4,0-25.2-6.3-25.2-17.6c0-2.5,0.4-5.1,1.2-8l1.6-6c0.6-2,0.8-4,0.8-5.7c0-4.5-2-7.4-7.2-7.4c-4.6,0-9.2,2.2-14.8,5.7l-10.4,38
	h-28.8l16.2-58.6c-2.3,2.6-6.2,4.4-11.7,4.4c-11.2,0-5.6-10.2-11.6-10.2c-6,0-9.6,2.3-14.6,5.9l-16,58.5h-28.8l2.8-10.2
	c-9.8,9.4-20.8,11.1-28.4,11.1c-11.2,0-18.4-4.9-19.6-14.2c-6.2,7.1-15.6,14.2-29.8,14.2c-13.6,0-26.6-6.5-26.6-24.8
	c0-20.8,16.6-53.9,51.5-53.9c11.4,0,16.2,3.4,16.2,7.8v1.1l2.2-8.2h28.8l-14.4,52.4c-0.6,2-0.8,3.5-0.8,4.9c0,4.3,2.6,6.6,8.2,6.6
	c7.8,0,13.2-6.8,16.2-14.5h1.3l13.6-49.4h28.8l-2.6,9.6c7-4.6,14.6-9.6,24.2-9.6c7.9,0,12.5,4.4,13.6,9.4l10.3-37.1l29.6-3.1
	l-15,54.2l38.6-23.4h19.8l-40,21.4c2.2-0.3,4.4-0.6,6.6-0.6c14.8,0,22,8.2,22,18c0,1.8-0.2,3.9-0.8,5.9l-2.2,7.7
	c-0.4,1.5-1,3.2-1,4.9c0,3.1,1.6,5.7,7.8,5.7c6.5,0,10.2-3.1,13.5-7.9c0-0.5,0-1.1,0-1.6c0-17.7,13-54.8,54-54.8
	c17.8,0,22,7.1,22,14.8c0,17.7-22,31.4-46,32.5c-0.2,2.2-0.4,4.3-0.4,6.2c0,10.5,4.8,12.9,14.4,12.9c15.8,0,25.4-6.8,35.4-15.6H883z
	 M828.3,476.7c15.4-0.8,29-12.6,29-25.4c0-3.9-1.2-6.3-5-6.3C842.1,445,832.3,461.5,828.3,476.7z M586.4,452.8
	c0-1.8-1.8-5.9-8.2-5.9c-17,0-28,27.7-28,42.2c0,11.9,6.4,12,10,12c5.8,0,14.2-4.6,16.6-13.6L586.4,452.8z M942.1,459.5
	c0,9.9-9,28.8-9,39.3c0,8.8,4.8,17.4,20.2,17.4c10.6,0,20.2-4.8,22-15.9c-1.2,0.6-3.2,0.9-6.6,0.9c-6,0-8-2.6-8-6.5
	c0-8.6,9.6-27.3,9.6-39.7c0-12.3-9.4-17.4-22.2-17.4c-6.2,0-15,1.2-23.4,8.6l2.2-8H898l-21.2,77h28.8l13.6-49.4
	c3-7.7,8.4-14.2,15.6-14.2C939.7,451.6,942.1,454.4,942.1,459.5z M1243.1,416.5c0,2.5-0.2,4.5-0.6,6.3h-9.4c0.2-1.5,0.4-2.8,0.4-4.2
	c0-3.5-3.6-5.2-7.6-5.2c-4.4,0-10.6,1.8-13.6,12.2l-3.6,12.6h20l-1.8,6.2h-19.8l-22.6,83.2c-6,22-23.2,26.2-36.4,26.2
	c-11.4,0-18.4-3.8-21.6-9.7c-7.8,7.9-18.4,9.7-27.2,9.7c-12.2,0-23.6-6.6-23.6-16.6c0-14.2,15.6-18.6,34.6-23.1l14.5-52.9
	c-7.6,4.1-17.8,7-28.8,8.4c-3.2,28.5-23.2,46.3-47.8,46.3c-18.6,0-32-6.8-32-24.3c0-17.7,13.6-54.7,54.9-54.7
	c17.2,0,25.6,8.5,25.6,24.6c0.8,0.3,1.6,0.3,2.2,0.3c8.2,0,19.5-3.7,28-7.8l7.6-28c6-22,23.2-26.2,36.4-26.2c9,0,17.6,3.7,21.4,9.7
	c8-7.9,18.6-9.7,27.4-9.7C1231.7,399.9,1243.1,406.5,1243.1,416.5z M1073.8,463.5c0-4.3,2.6-7.1,6.2-8.3c-0.4-6.5-2.4-8.9-7.6-8.9
	c-14.2,0-26.6,28.2-26.6,43.3c0,10.2,2.6,12.5,10.2,12.5c9.8,0,20-13.9,23.2-32C1075,469.2,1073.8,466.5,1073.8,463.5z M1110,519.1
	c-12.6,3.2-22.2,7.5-22.2,15.9c0,2.2,3.6,5.1,8,5.1c4.2,0,9.2-2.9,11.8-12L1110,519.1z M1160,510.4l-20.6,2.9l-3.8,14.2
	c-1,3.5-2.4,6.8-3.8,9.4c1.8,2.5,6.4,3.1,11.6,3.1c4.2,0,9.2-2.9,11.8-12L1160,510.4z M1178.1,444.4h-19.8l-17.8,65.1l20.6-2.8
	L1178.1,444.4z M1184.7,418.7c0-3.5-3.6-5.2-7.6-5.2c-4.4,0-10.6,1.8-13.6,12.2l-3.6,12.6h19.8l4.6-16.2
	C1184.7,420.8,1184.7,419.9,1184.7,418.7z M1555.2,449.8c0,5.4-4.6,11.2-14.4,11.2c-11.2,0-5.6-10.2-11.6-10.2
	c-6,0-9.6,2.3-14.6,5.9l-16,58.5h-28.8l5.1-18.3c-11,10.6-25.9,19.3-46.7,19.3c-14.5,0-25.2-4.2-29.3-14.1
	c-9.7,12.2-20.6,14.1-28.8,14.1c-17.4,0-23.6-8.6-23.6-17.4c0-10.5,9-29.4,9-39.3c0-5.1-2.4-7.9-7.2-7.9c-7.2,0-12.6,6.5-15.6,14.2
	l-13.6,49.4h-28.8l5.1-18.3c-11,10.6-25.9,19.3-46.7,19.3c-18.8,0-31.2-7.1-31.2-24.5c0-17.7,13-54.8,54.1-54.8
	c17.8,0,22,7.1,22,14.8c0,17.7-22,31.4-46.1,32.5c-0.2,2.2-0.4,4.3-0.4,6.2c0,10.5,4.8,12.9,14.4,12.9c15.8,0,25.4-6.8,35.4-15.6h1
	l13.6-49.4h28.8l-2.2,8c8.4-7.4,17.2-8.6,23.4-8.6c12.8,0,22.2,5.1,22.2,17.4c0,12.5-9.6,31.1-9.6,39.7c0,3.8,2,6.5,8,6.5
	c7.5,0,11.2-4,14.9-10.1v0c0.3-17.9,13.4-54.3,54.1-54.3c17.8,0,22,7.1,22,14.8c0,17.7-22,31.4-46,32.5c-0.2,2.2-0.4,4.3-0.4,6.2
	c0,10.5,4.8,12.9,14.4,12.9c15.8,0,25.4-6.8,35.4-15.6h1l13.6-49.4h28.8l-2.6,9.6c7-4.6,14.6-9.6,24.2-9.6
	C1550.4,438.2,1555.2,443.9,1555.2,449.8z M1428.5,476.7c15.4-0.8,29-12.6,29-25.4c0-3.9-1.2-6.3-5-6.3
	C1442.3,445,1432.5,461.5,1428.5,476.7z M1248.9,476.7c15.4-0.8,29-12.6,29-25.4c0-3.9-1.2-6.3-5-6.3
	C1262.7,445,1252.9,461.5,1248.9,476.7z"/>
<path id="Grau" class="st2" d="M355.1,649.8c-160.1,0-290-129.8-290-289.9S194.9,70,355.1,70c83,0,157.9,34.9,210.8,90.8h1137.8
	c-355-4.5-709.9-9-1064.9-13.5c-18-0.2-35.9-0.5-53.9-0.7l22.7-35.5c-15.8-16.1-33.2-30.6-51.9-43.4l-31,29.2l13.3-40.6
	C518.7,44.7,498.3,34.8,477,27l-23.1,36.5l2.8-43.2c-21.3-6.3-43.4-10.8-66.1-13l-13.4,41.6L369,5.8c-4.6-0.2-9.2-0.3-13.9-0.3
	c-18.1,0-35.9,1.4-53.2,4l-2.7,44.3l-18.9-40.3c-22.1,4.8-43.5,11.6-63.9,20.3l8.5,44.2l-28.7-34.8c-20.1,10.1-39,22-56.7,35.6
	l19.5,41.1l-36.9-26.9c-16.8,14.7-32.2,30.9-46,48.5l29.4,35.4l-42.8-17C50.2,178,39.3,197.5,30.3,218l37.5,27.2l-46.1-5.9
	C14.3,260,8.7,281.5,5.2,303.8l43.3,17l-46.1,5.7c-1,11-1.6,22.1-1.6,33.3c0,11.2,0.6,22.3,1.6,33.3l46.1,5.7L5.2,416
	c3.5,22.3,9.2,43.8,16.6,64.5l46.1-5.9l-37.5,27.2c9,20.5,19.8,40,32.4,58.3l42.8-17l-29.4,35.4c13.8,17.6,29.2,33.8,46,48.5
	l36.9-26.9l-19.5,41.1c17.7,13.6,36.6,25.5,56.7,35.6l28.7-34.9l-8.5,44.2c20.4,8.7,41.8,15.5,63.9,20.2l18.9-40.3l2.7,44.3
	c17.4,2.6,35.1,4,53.2,4c4.7,0,9.3-0.1,13.9-0.3l8.1-43.1l13.4,41.6c22.7-2.3,44.8-6.7,66.1-13l-2.8-43.2l23.1,36.5
	c21.3-7.8,41.7-17.6,60.9-29.2l-13.3-40.6l31,29.2c18.7-12.8,36-27.4,51.9-43.4l-22.7-35.5c18-0.2,35.9-0.5,53.9-0.7
	c355-4.5,709.9-9,1064.9-13.5H565.8C513,614.9,438.1,649.8,355.1,649.8z M806.1,375.5H124.7v7.1H806c-0.2-1.1-0.3-2.2-0.3-3.3
	C805.7,377.9,805.8,376.7,806.1,375.5z M819.7,375.5c0,0.3-0.1,0.7-0.1,1c0,2.2,2,5.1,5.8,6.1h5.2c2.8-0.8,5.7-3.2,8.1-7.1H819.7z
	 M1831.7,375.5c-1.6,2.7-3.3,5-5.2,7.1h883.9v-7.1H1831.7z M1776.4,375.5c1.8,1.8,4.9,3.2,8.4,3.2c2.6,0,5.5-0.9,8.2-3.2H1776.4z
	 M1760.7,375.5h-885c-1.3,2.7-2.8,5-4.5,7.1h891.3C1761.5,380.4,1760.8,378,1760.7,375.5z M2703.2,168.3
	c-36.1,17.7-50.1,20.6-117.2,25.9c25.2,6.8,75.2,5.6,100.7-0.6c6.6-1.6,7-0.6,7.9,8.1c0.7,7.4,0,12,15.6,18.2
	C2711.6,202.2,2708.4,185.2,2703.2,168.3z M2466.9,48.9C2344,19.4,2267.1,14,2125.8,73.4c-16.6,7-25.3,11.9-38.8,12.8
	c-80,5.6-234.7,15.4-283.1,66.9c75.1-44.6,181.8-45.8,280.8-50c13.3-0.6,26.5-3.8,43.8-12c134.1-63.3,205.1-60.6,335.2-32
	c47.1,10.3,137,40.8,184.4,8.7C2584,87.9,2529.7,63.9,2466.9,48.9z M2323.6,101c-27.9,1.9-120.1,18.8-146.2,38.2
	c-5.7,6.6-1.7,7.6,12.1,7.1c119.5-4.2,207.4-7,274.7-9.3c2.5-0.1,43.3-1.8,43.3-1.8C2454.7,106.4,2387.9,96.7,2323.6,101z"/>
</svg>
